<?xml version="1.0" standalone="no"?>
<!DOCTYPE svg PUBLIC "-//W3C//DTD SVG 20010904//EN"
 "http://www.w3.org/TR/2001/REC-SVG-20010904/DTD/svg10.dtd">
<svg version="1.0" xmlns="http://www.w3.org/2000/svg"
 width="300.000000pt" height="303.000000pt" viewBox="0 0 300.000000 303.000000"
 preserveAspectRatio="xMidYMid meet">
<metadata>
Created by potrace 1.10, written by Peter Selinger 2001-2011
</metadata>
<g transform="translate(0.000000,303.000000) scale(0.100000,-0.100000)"
fill="#000000" stroke="none">
<path d="M1660 2952 c-77 -10 -120 -58 -120 -135 l0 -45 -52 -12 c-32 -8 -86
-11 -144 -7 -52 3 -96 2 -99 -3 -7 -12 20 -18 81 -19 54 -1 163 -32 202 -57
18 -12 20 -18 12 -34 -26 -48 1 -142 51 -179 48 -35 153 -46 245 -26 69 15 87
26 65 40 -5 3 -12 19 -16 36 -7 30 -93 152 -124 176 -14 11 -11 12 15 13 26 0
45 13 98 67 36 37 66 70 66 73 0 7 -108 74 -144 89 -39 16 -104 27 -136 23z
m75 -34 c22 -6 43 -13 48 -14 4 -1 9 -3 12 -4 3 -1 8 -3 13 -4 23 -6 82 -50
82 -62 0 -8 -6 -11 -15 -8 -13 5 -14 2 -5 -20 5 -15 6 -25 1 -21 -5 3 -24 -8
-42 -25 -35 -32 -50 -36 -77 -21 -10 5 -26 5 -37 0 -19 -9 -19 -9 2 -5 12 2
30 -3 40 -11 16 -13 13 -13 -32 -7 -27 4 -65 8 -83 8 -31 1 -56 21 -46 38 3 4
-2 8 -11 8 -27 0 -5 20 23 21 15 0 50 7 77 14 l50 13 -45 -5 c-88 -10 -112 -9
-123 8 -14 23 16 69 46 70 13 0 17 3 8 6 -10 4 -8 9 10 19 30 17 53 17 104 2z
m-157 -192 c29 -33 31 -34 75 -24 52 11 92 -3 111 -37 6 -11 14 -22 17 -25 10
-9 22 -45 20 -59 -2 -9 3 -12 14 -7 9 3 14 2 11 -3 -3 -5 1 -12 9 -15 21 -8
35 -48 23 -63 -5 -7 -7 -16 -4 -22 3 -5 -24 -14 -60 -20 -66 -12 -109 -7 -99
10 8 12 -8 12 -21 -1 -15 -15 -71 10 -83 37 -6 13 -15 23 -20 23 -15 0 -23 33
-9 41 9 6 9 11 -2 24 -12 14 -12 18 0 25 8 5 18 6 23 3 5 -3 3 -9 -4 -14 -8
-5 -9 -9 -3 -9 6 0 18 8 25 17 8 10 9 14 2 10 -6 -4 -14 -3 -18 3 -4 6 -10 8
-14 6 -4 -3 -8 7 -9 21 -2 24 -1 25 16 10 16 -15 19 -15 29 3 14 22 0 31 -39
23 -15 -3 -42 4 -66 16 -23 12 -49 21 -58 21 -28 0 -8 12 43 26 27 7 51 13 54
13 4 1 20 -14 37 -33z"/>
<path d="M1625 2640 c-8 -13 3 -30 20 -30 7 0 15 -5 17 -11 2 -7 11 -10 19 -7
9 3 3 11 -20 22 -26 14 -31 20 -20 27 9 6 10 9 2 9 -6 0 -15 -4 -18 -10z"/>
<path d="M1696 2535 c-3 -8 0 -16 7 -17 7 0 17 -2 22 -2 6 -1 16 -5 23 -10 30
-18 18 1 -13 21 -27 18 -34 19 -39 8z"/>
<path d="M659 2703 c-88 -79 -114 -166 -84 -277 10 -36 24 -71 31 -77 9 -8 12
-24 7 -55 -4 -32 -2 -44 7 -44 7 0 10 7 6 15 -9 25 18 89 59 139 42 52 66 58
83 21 6 -14 16 -24 20 -23 5 2 18 -8 29 -21 13 -16 22 -20 27 -13 3 6 -1 17
-10 24 -9 7 -32 28 -52 46 -19 18 -42 32 -50 30 -9 -2 -31 -23 -49 -46 -18
-24 -33 -40 -34 -35 0 4 -4 -2 -9 -14 -14 -34 -27 -28 -35 15 -4 20 -9 48 -12
62 -3 14 -6 48 -6 75 -1 42 5 58 34 100 20 27 50 58 67 68 30 18 32 18 39 1 3
-10 14 -25 24 -35 24 -24 49 -112 49 -173 0 -37 3 -47 10 -36 14 21 12 114 -2
147 -19 43 -87 143 -98 143 -6 0 -28 -16 -51 -37z"/>
<path d="M1075 2733 c-59 -15 -107 -67 -132 -145 -14 -44 -25 -60 -50 -73 -18
-10 -30 -22 -27 -26 3 -5 18 1 34 13 27 20 31 20 62 5 62 -29 114 -38 160 -28
95 22 155 61 196 132 19 32 20 37 6 57 -23 33 -195 78 -249 65z m145 -38 c6
-3 10 -13 10 -21 0 -8 5 -14 10 -14 6 0 10 4 10 9 0 5 6 8 13 7 28 -6 47 -19
47 -32 0 -16 -43 -64 -59 -64 -6 0 -11 -4 -11 -9 0 -5 -15 -14 -32 -21 -18 -8
-40 -20 -50 -27 -16 -14 -107 -24 -140 -15 -10 2 -18 9 -18 15 0 20 33 47 59
47 14 0 35 7 45 15 19 15 19 15 -2 15 -30 0 -86 -24 -109 -47 -29 -27 -46 -28
-38 -2 4 12 8 28 9 37 2 8 13 25 26 39 12 13 20 26 17 30 -11 11 33 41 52 36
10 -3 21 -1 24 4 6 10 121 8 137 -2z"/>
<path d="M685 2590 c-4 -12 -9 -37 -11 -58 -7 -55 12 -26 20 31 7 48 2 63 -9
27z"/>
<path d="M2290 2509 c0 -6 7 -26 16 -45 14 -30 15 -37 2 -57 -18 -28 -38 -105
-38 -149 0 -18 13 -56 30 -84 26 -46 38 -56 115 -94 87 -43 158 -59 185 -41
10 7 14 31 13 93 0 72 -4 89 -29 134 -49 86 -80 114 -155 145 -39 16 -75 28
-82 26 -6 -1 -18 17 -26 41 -14 39 -31 56 -31 31z m67 -130 c5 -31 55 -122 71
-127 16 -5 5 26 -18 53 -23 26 -33 60 -25 84 5 16 9 17 30 7 14 -6 25 -15 25
-19 0 -5 4 -6 9 -2 5 3 26 -15 47 -40 20 -25 40 -41 43 -36 4 6 12 2 19 -9 7
-11 9 -20 5 -19 -30 5 -33 -2 -15 -28 26 -38 32 -59 39 -125 4 -47 3 -59 -11
-64 -22 -8 -68 4 -61 16 3 6 -3 11 -14 11 -33 2 -39 4 -47 12 -4 4 -15 7 -25
7 -10 0 -22 6 -26 13 -4 8 -20 22 -35 31 -15 10 -30 26 -33 37 -4 10 -13 19
-21 19 -8 0 -14 6 -15 13 0 6 -2 21 -4 31 -2 11 -1 25 3 30 4 6 8 25 9 41 2
46 26 106 37 95 5 -5 11 -19 13 -31z"/>
<path d="M1050 2420 c0 -5 14 -16 30 -25 17 -9 30 -24 30 -34 0 -22 24 -79 42
-101 46 -55 121 -63 228 -27 75 26 84 43 48 97 -61 90 -200 125 -298 76 -26
-13 -30 -12 -46 5 -19 21 -34 25 -34 9z m261 -41 c17 -12 30 -15 34 -9 3 5 12
10 18 9 8 0 8 -2 -1 -6 -8 -3 0 -17 25 -39 22 -20 31 -34 22 -35 -11 0 -11 -2
1 -7 14 -6 14 -9 -2 -24 -10 -10 -18 -13 -18 -8 0 6 -9 10 -21 10 -11 0 -18
-4 -14 -9 10 -18 -98 -36 -120 -21 -5 4 -22 10 -37 14 -19 4 -28 13 -28 25 0
11 -5 21 -11 23 -10 3 -42 78 -33 78 1 0 18 -9 36 -20 18 -10 54 -26 78 -35
l45 -15 -24 20 c-13 11 -32 20 -44 20 -20 0 -57 26 -57 41 0 23 114 15 151
-12z"/>
<path d="M740 2380 c0 -5 5 -10 11 -10 6 0 9 -6 6 -14 -3 -8 1 -17 9 -20 8 -3
12 -2 9 3 -3 5 -1 12 4 16 16 9 1 35 -20 35 -10 0 -19 -4 -19 -10z"/>
<path d="M332 2363 c-4 -10 -7 -54 -6 -98 0 -70 4 -87 30 -135 34 -62 86 -95
164 -104 57 -7 80 -33 80 -93 0 -33 -3 -42 -12 -37 -7 4 -35 22 -63 39 -56 35
-136 61 -161 51 -13 -5 -15 -19 -13 -79 6 -125 51 -224 122 -267 17 -11 54
-22 83 -26 l52 -6 17 -70 c23 -90 16 -168 -19 -228 -24 -41 -26 -51 -20 -115
5 -45 17 -90 35 -127 15 -32 23 -58 18 -58 -5 0 -16 -16 -24 -37 -8 -20 -17
-34 -19 -32 -8 8 -47 162 -72 288 -22 107 -25 146 -22 254 2 71 1 120 -3 110
-4 -10 -8 -53 -8 -95 -1 -43 -5 -78 -9 -78 -5 0 -30 29 -56 64 -25 34 -55 71
-66 81 -11 10 -20 28 -20 39 0 12 -11 33 -24 49 -20 23 -25 25 -30 11 -4 -9
-4 -19 -1 -22 3 -3 5 0 5 6 0 7 8 5 20 -5 25 -21 26 -48 3 -63 -13 -8 -13 -10
-3 -7 19 6 40 -9 63 -46 17 -26 17 -28 0 -34 -9 -4 -18 -2 -20 4 -2 6 -17 9
-34 6 -16 -2 -29 0 -29 5 0 5 -11 14 -25 20 -27 12 -67 70 -59 84 3 4 0 8 -6
8 -6 0 -9 4 -5 9 3 5 1 12 -5 16 -9 6 -7 98 4 185 2 14 4 35 5 46 0 12 8 24
16 28 22 8 47 -4 41 -20 -3 -8 -2 -13 2 -11 4 1 18 -8 32 -21 16 -14 27 -19
34 -12 13 13 -20 48 -68 74 -35 18 -37 19 -56 1 -11 -10 -20 -28 -20 -41 0
-12 -5 -35 -10 -50 -21 -55 -20 -126 3 -194 26 -78 74 -129 137 -150 49 -16
55 -16 87 -6 18 6 27 -2 57 -51 20 -31 36 -69 36 -83 0 -14 7 -59 16 -100 8
-41 17 -91 20 -110 2 -19 11 -55 18 -80 21 -67 28 -102 19 -98 -4 2 -28 16
-53 32 l-45 28 -1 66 c-2 103 -17 141 -84 214 -63 70 -131 104 -215 110 -34 2
-41 -1 -54 -24 -13 -23 -14 -40 -3 -120 14 -114 29 -160 66 -199 51 -54 81
-64 192 -64 80 0 106 -4 120 -16 29 -25 77 -47 93 -41 9 3 11 0 6 -9 -5 -7 7
-1 27 14 19 15 42 27 51 27 38 0 164 60 199 96 47 46 49 80 14 215 -53 203
-82 227 -174 142 l-40 -38 20 -19 c21 -19 21 -19 14 8 -5 19 -3 26 8 26 8 0
17 7 20 16 4 11 15 14 36 10 18 -2 30 0 30 7 0 20 9 1 15 -33 3 -19 10 -39 14
-45 4 -5 14 -32 21 -60 8 -27 20 -60 28 -72 20 -31 6 -143 -18 -143 -4 0 -20
-11 -36 -25 -16 -14 -38 -25 -50 -25 -21 0 -21 1 -7 78 8 42 15 88 17 102 2
14 6 46 11 73 5 31 4 47 -3 47 -6 0 -13 -26 -17 -57 -3 -32 -13 -97 -21 -144
-8 -47 -12 -93 -9 -101 7 -16 -14 -30 -52 -34 -19 -2 -21 0 -11 16 6 10 18 16
25 13 9 -4 13 4 14 23 0 16 2 37 4 47 2 9 -1 15 -6 11 -5 -3 -9 -18 -9 -35 0
-16 -4 -29 -10 -29 -5 0 -13 -1 -17 -1 -12 -2 -41 53 -42 78 -1 12 -7 24 -13
26 -9 4 -9 6 -1 6 6 1 9 10 6 21 -3 11 -8 18 -12 16 -3 -2 -6 14 -5 37 0 22 6
43 12 45 6 2 8 10 5 18 -3 8 2 17 12 20 10 4 13 9 6 13 -7 5 -6 15 2 31 7 14
14 59 16 100 2 61 7 79 24 97 19 19 27 21 62 13 70 -17 108 -12 158 19 51 33
103 111 113 171 3 19 10 47 16 62 8 22 7 33 -6 53 -25 38 -83 34 -175 -13
-103 -52 -155 -129 -165 -246 -2 -18 -10 -44 -19 -56 -15 -22 -17 -22 -22 -4
-4 10 -11 30 -16 43 -7 16 -6 28 1 35 5 5 10 21 10 34 0 13 5 33 11 44 16 29
2 100 -27 144 -20 29 -23 39 -12 45 7 5 16 9 20 9 15 0 57 76 64 113 5 28 20
51 61 90 30 29 63 68 73 88 24 45 31 150 11 157 -10 3 -13 -2 -9 -21 3 -15 0
-28 -5 -30 -6 -2 -10 -24 -9 -50 2 -44 -1 -50 -45 -92 -31 -31 -50 -42 -57
-35 -16 16 -28 11 -21 -9 3 -11 1 -22 -5 -26 -5 -3 -10 0 -10 8 0 8 -9 26 -20
40 -15 18 -18 33 -14 56 4 21 3 31 -5 31 -7 0 -9 -5 -6 -11 4 -6 0 -16 -9 -22
-15 -11 -14 -16 7 -57 l24 -45 -22 -53 -22 -54 -16 26 c-15 23 -16 34 -6 96
10 59 10 74 -2 85 -12 12 -14 7 -16 -38 -2 -76 -6 -97 -18 -97 -6 0 -34 23
-62 50 -28 28 -49 50 -47 50 3 0 -4 12 -15 26 -12 15 -26 45 -33 68 -7 24 -13
34 -15 24 -2 -9 5 -36 16 -59 12 -24 21 -48 21 -53 0 -6 9 -17 20 -24 11 -7
20 -21 20 -31 0 -11 9 -23 20 -26 21 -7 28 -25 10 -25 -5 0 -10 5 -10 12 0 6
-3 8 -6 5 -4 -3 -16 -1 -28 5 -11 7 -25 11 -30 10 -5 -2 -6 4 -3 13 4 9 1 15
-8 15 -9 0 -21 25 -34 68 -30 106 -33 135 -15 160 17 25 44 29 44 7 0 -8 8
-16 18 -16 9 -1 31 -2 47 -3 21 -1 33 -8 40 -23 5 -13 18 -23 29 -23 14 0 17
-6 14 -23 -3 -15 0 -24 8 -24 7 0 10 6 7 14 -3 7 -1 13 5 13 6 0 13 -6 15 -12
4 -10 6 -9 6 1 1 7 -15 28 -34 46 -70 67 -206 108 -223 68z m350 -339 c-4 -40
-30 -92 -59 -115 -15 -13 -16 -11 -9 16 14 59 51 145 61 141 6 -1 8 -20 7 -42z
m-191 -93 c24 -15 55 -39 69 -53 65 -66 70 -75 70 -126 0 -28 -4 -53 -10 -57
-5 -3 -7 -12 -4 -19 3 -7 -2 -18 -9 -25 -12 -10 -21 0 -52 55 -43 79 -134 184
-152 177 -9 -4 -2 -16 23 -39 19 -19 32 -34 28 -34 -4 0 1 -9 11 -20 10 -11
14 -20 9 -21 -5 0 1 -4 14 -9 12 -5 22 -16 22 -25 0 -9 14 -29 30 -45 17 -16
30 -34 30 -40 0 -16 -60 -12 -66 5 -4 8 -10 13 -14 10 -12 -7 -63 43 -87 85
-23 40 -30 115 -12 136 9 11 8 14 -2 14 -12 0 -12 2 0 9 11 7 10 11 -5 19 -18
10 -17 11 6 21 39 15 53 13 101 -18z m505 -69 c6 -4 9 -20 7 -37 -2 -16 -5
-42 -6 -57 -1 -16 -5 -28 -9 -28 -5 0 -8 -7 -8 -16 0 -21 -41 -94 -53 -94 -4
0 -15 -7 -23 -15 -9 -8 -24 -15 -35 -15 -10 0 -19 -7 -19 -15 0 -8 -4 -16 -10
-16 -5 -1 -16 -2 -22 -3 -7 -1 -19 2 -26 7 -7 6 -15 7 -19 4 -3 -4 -18 3 -34
14 -24 17 -27 25 -22 52 3 18 10 36 14 41 5 6 9 18 9 28 0 28 93 115 136 127
20 6 42 7 47 4 6 -3 7 -1 3 5 -10 16 49 28 70 14z m-790 -493 c3 -6 14 -9 24
-6 14 3 17 1 13 -11 -4 -9 -2 -13 4 -9 6 4 23 -5 39 -18 16 -14 36 -25 44 -25
12 0 12 -2 1 -9 -9 -6 -10 -11 -2 -15 14 -9 33 2 26 15 -4 5 -1 9 4 9 6 0 12
-4 12 -10 1 -5 3 -14 4 -20 1 -5 3 -14 4 -18 0 -5 10 -18 21 -30 26 -28 50
-120 39 -149 -5 -13 -6 -30 -3 -38 8 -20 -5 -19 -30 3 -17 14 -18 14 -8 1 11
-14 9 -18 -11 -23 -13 -3 -38 -1 -56 4 -18 5 -38 7 -46 4 -15 -6 -76 26 -70
36 3 4 -7 18 -20 30 -14 13 -25 28 -25 34 0 6 -9 28 -19 48 -11 19 -18 38 -15
41 2 2 0 16 -6 31 -6 17 -6 25 0 21 6 -4 9 5 8 19 -1 15 -6 26 -10 26 -13 0
-9 45 4 58 15 15 65 16 74 1z"/>
<path d="M875 1782 c-17 -15 -41 -40 -53 -56 -12 -16 -22 -24 -22 -17 0 6 -4
11 -10 11 -6 0 -9 -3 -9 -7 3 -19 -2 -36 -8 -30 -6 6 -43 -45 -43 -60 0 -4 41
35 90 85 79 81 97 102 88 102 -2 0 -17 -13 -33 -28z"/>
<path d="M296 1162 c-7 -11 112 -117 121 -108 6 6 -22 36 -34 36 -4 0 -24 19
-43 42 -23 26 -39 38 -44 30z"/>
<path d="M420 2261 c0 -31 117 -208 129 -195 2 2 -5 17 -17 34 -12 16 -19 36
-16 44 4 10 0 13 -14 10 -22 -6 -49 29 -59 76 -5 29 -23 52 -23 31z"/>
<path d="M699 2253 c0 -10 -3 -40 -6 -68 -5 -56 2 -59 10 -5 3 19 9 45 12 56
4 12 2 25 -4 28 -6 4 -11 -1 -12 -11z"/>
<path d="M2094 1906 c-56 -25 -97 -105 -125 -244 -11 -53 -18 -66 -41 -78 -50
-26 -48 -99 3 -99 34 0 63 50 82 142 32 160 78 243 136 243 16 0 33 -4 36 -10
9 -15 45 -12 45 3 0 41 -83 67 -136 43z m-121 -338 c-8 -30 -22 -48 -39 -48
-21 0 -17 14 12 44 32 32 34 32 27 4z"/>
<path d="M2556 1748 c-19 -29 -66 -135 -66 -149 0 -6 5 -7 10 -4 14 8 13 1 -5
-41 -14 -34 -16 -35 -32 -19 -23 24 -30 2 -9 -30 14 -21 20 -24 36 -15 11 6
20 15 20 20 0 6 20 55 46 111 44 99 51 138 27 146 -6 2 -19 -6 -27 -19z"/>
<path d="M1127 1743 c-13 -12 -7 -41 14 -64 l21 -24 -5 22 -5 23 28 -23 c34
-27 28 -41 -14 -33 -24 5 -40 0 -65 -18 -47 -35 -63 -62 -65 -107 0 -31 6 -45
34 -74 18 -19 42 -35 52 -35 26 0 22 33 -8 59 -58 51 5 140 108 151 84 8 94
59 11 60 -25 0 -35 7 -52 35 -19 33 -39 43 -54 28z"/>
<path d="M1312 1734 c-12 -8 -22 -22 -22 -31 0 -13 9 -14 56 -8 65 8 84 -3 84
-49 0 -39 -30 -105 -59 -130 -45 -41 -13 -63 39 -26 40 28 70 96 70 157 0 69
-32 103 -99 103 -26 0 -56 -7 -69 -16z"/>
<path d="M2092 1739 c-15 -5 -22 -16 -20 -26 2 -14 16 -19 65 -23 80 -6 100
-24 87 -77 -13 -53 -65 -87 -119 -78 -70 11 -79 11 -83 -7 -5 -23 47 -48 101
-48 112 0 198 136 135 215 -37 47 -110 67 -166 44z"/>
<path d="M2353 1728 c-15 -20 -43 -96 -43 -119 0 -35 33 -18 58 31 23 46 26
91 6 97 -6 2 -15 -2 -21 -9z"/>
<path d="M1564 1689 c-66 -19 -70 -66 -5 -55 103 17 131 18 146 6 23 -19 18
-46 -11 -69 -34 -26 -59 -27 -92 -1 l-25 20 -25 -22 c-32 -31 -75 -105 -67
-118 13 -20 35 -9 61 30 20 29 32 39 43 34 38 -16 70 -15 109 5 78 40 97 108
41 155 -25 22 -40 26 -87 25 -31 0 -71 -5 -88 -10z"/>
<path d="M2419 1663 c-5 -15 -24 -59 -41 -96 -25 -54 -29 -70 -19 -80 19 -19
64 38 58 72 -3 14 1 40 8 56 l13 30 7 -33 c13 -56 26 -47 23 14 -2 47 -7 60
-20 62 -12 2 -21 -6 -29 -25z"/>
<path d="M447 1610 c-3 -8 -7 -28 -9 -45 l-3 -30 -22 23 c-27 26 -29 20 -6
-19 22 -37 29 -37 43 6 12 36 9 94 -3 65z"/>
<path d="M1860 1384 c-42 -36 -64 -82 -91 -196 -20 -78 -28 -99 -47 -107 -45
-21 -49 -101 -4 -101 36 0 65 44 77 120 14 87 56 200 87 235 33 39 54 43 99
20 27 -14 30 -14 36 1 10 27 -32 54 -82 54 -32 0 -52 -7 -75 -26z"/>
<path d="M2710 1349 c0 -8 4 -28 9 -45 7 -27 4 -35 -29 -72 -62 -71 -80 -118
-80 -208 0 -62 5 -90 24 -129 31 -66 77 -109 106 -100 25 8 100 107 137 179
46 91 15 187 -87 264 -33 25 -47 44 -53 71 -8 38 -27 66 -27 40z m41 -111 c1
-7 1 -16 0 -20 0 -4 6 -5 14 -2 16 7 68 -43 59 -57 -3 -5 -1 -9 5 -9 5 0 17
-7 25 -15 18 -19 15 -100 -5 -137 -7 -13 -12 -30 -11 -38 3 -19 -44 -70 -61
-66 -6 1 -9 1 -4 -1 4 -3 7 -11 7 -19 0 -9 -4 -12 -10 -9 -5 3 -7 0 -4 -9 7
-17 -30 -40 -52 -32 -25 10 -62 102 -61 151 2 39 -1 45 -15 41 -13 -3 -18 2
-18 17 0 18 2 19 10 7 8 -12 10 -8 11 15 1 17 1 34 0 38 -2 13 50 117 59 117
20 0 33 -36 34 -96 1 -52 3 -62 12 -49 7 9 10 31 8 48 -10 75 -15 97 -24 97
-4 0 -6 9 -3 20 6 22 22 27 24 8z"/>
<path d="M2002 1269 c-36 -11 -51 -34 -34 -51 8 -8 28 -6 70 6 100 28 125 -3
45 -54 -30 -19 -60 -30 -84 -30 -43 0 -67 -21 -46 -39 8 -6 27 -9 43 -5 17 3
36 0 47 -8 18 -13 18 -16 3 -52 -20 -49 -20 -56 3 -56 37 0 68 109 39 138 -9
9 -8 12 4 12 9 0 30 12 47 26 39 33 43 84 9 108 -25 18 -94 20 -146 5z"/>
<path d="M1896 1252 c-3 -5 -25 -66 -50 -136 -38 -109 -43 -128 -29 -133 19
-7 26 4 77 121 43 99 51 148 24 154 -9 2 -19 -1 -22 -6z"/>
<path d="M1530 1243 c-38 -6 -98 -34 -104 -49 -9 -24 13 -26 83 -8 58 15 73
16 99 5 59 -25 52 -63 -25 -143 -41 -42 -49 -68 -21 -68 19 0 70 42 99 83 30
42 38 92 19 128 -19 34 -93 60 -150 52z"/>
<path d="M1473 1118 c-6 -7 -14 -23 -17 -36 -4 -12 -18 -35 -31 -50 -16 -19
-21 -33 -15 -42 23 -37 106 59 98 112 -4 26 -21 33 -35 16z"/>
<path d="M860 1010 c-8 -5 -28 -10 -45 -11 -41 -2 40 -16 170 -28 55 -6 120
-13 145 -16 42 -6 44 -5 26 9 -11 9 -29 13 -42 10 -13 -3 -29 -2 -36 2 -6 4
-31 7 -53 5 -31 -2 -45 3 -59 18 -21 23 -79 28 -106 11z m80 -15 c31 -18 7
-18 -40 0 -31 12 -32 14 -10 14 14 0 36 -6 50 -14z"/>
<path d="M734 946 c-28 -23 -29 -28 -27 -100 1 -70 4 -79 38 -123 27 -36 44
-48 68 -51 18 -2 37 -8 42 -14 15 -16 -76 -4 -116 15 l-34 17 30 -25 c18 -15
43 -25 62 -25 17 0 33 -5 35 -11 3 -9 10 -8 25 1 12 8 19 20 16 27 -8 20 12
15 33 -8 26 -28 101 -22 124 11 8 12 28 37 44 56 l29 35 -21 43 c-12 24 -22
48 -22 53 0 20 -33 38 -71 39 -21 0 -36 -3 -33 -7 10 -17 -20 -21 -33 -3 -12
16 -11 20 4 26 16 7 15 7 -2 5 -11 -2 -38 9 -60 24 -62 41 -97 45 -131 15z
m40 -3 c4 -5 24 -13 44 -18 37 -11 37 -11 35 -62 -2 -44 1 -53 17 -58 16 -5
18 -10 10 -25 -6 -10 -10 -28 -10 -39 0 -12 -5 -21 -11 -21 -6 0 -9 -8 -7 -18
5 -17 -12 -21 -54 -13 -15 2 -58 77 -72 123 -15 52 -11 92 13 120 17 20 24 22
35 11z m131 -81 c15 -10 13 -31 -4 -41 -18 -12 -43 12 -35 33 7 17 22 20 39 8z
m136 -35 c12 -35 13 -46 3 -55 -7 -7 -18 -12 -23 -12 -5 0 -16 -9 -24 -20 -8
-11 -17 -17 -22 -12 -5 4 -5 1 -1 -6 9 -16 31 -10 31 8 0 7 9 14 19 16 10 1
23 9 28 16 5 8 6 1 2 -17 -4 -16 -11 -32 -16 -33 -4 -2 -5 -9 -2 -14 4 -7 2
-8 -5 -4 -7 4 -19 5 -28 2 -12 -5 -13 -9 -4 -20 9 -10 7 -17 -6 -27 -13 -11
-17 -11 -21 -1 -3 9 -8 10 -16 3 -7 -6 -17 -6 -26 0 -13 8 -13 10 0 19 9 6 10
10 3 10 -6 0 -15 -5 -18 -10 -10 -16 -35 16 -35 44 0 37 38 113 68 136 13 11
37 20 51 20 22 0 29 -7 42 -43z"/>
<path d="M940 940 c-12 -8 -9 -10 12 -10 15 0 30 -4 33 -10 3 -5 34 -10 67
-10 76 0 71 10 -6 12 -32 1 -62 8 -68 15 -12 15 -18 16 -38 3z"/>
<path d="M1195 935 c11 -9 19 -21 17 -26 -1 -6 2 -8 7 -5 12 8 41 -33 41 -57
0 -10 9 -30 20 -44 11 -14 20 -40 20 -57 0 -17 7 -49 15 -71 12 -35 14 -37 15
-13 0 15 -4 29 -8 32 -5 3 -9 21 -10 41 -1 19 -6 45 -13 56 -8 16 -8 23 1 29
9 6 9 9 1 15 -7 3 -23 24 -36 46 -14 21 -40 46 -57 54 -31 15 -31 15 -13 0z"/>
<path d="M1366 918 c-3 -13 -6 -35 -6 -50 0 -16 -5 -28 -11 -28 -6 0 -8 9 -4
23 7 22 7 22 -9 2 -17 -23 -21 -39 -6 -30 6 3 10 -4 10 -17 0 -18 2 -20 10 -8
7 11 11 9 19 -13 19 -51 14 -88 -29 -192 l-13 -30 -7 25 c-7 22 -8 23 -9 4 -1
-12 -8 -27 -16 -34 -17 -14 -20 -30 -6 -30 5 0 13 10 16 21 5 14 10 18 14 10
17 -27 71 69 71 125 0 13 5 24 11 24 5 0 7 5 4 10 -3 6 4 10 17 10 18 0 20 2
8 10 -13 8 -12 10 4 10 12 0 16 5 13 14 -8 19 16 38 37 30 9 -3 16 -1 16 5 0
15 -33 14 -48 -1 -9 -9 -12 -7 -12 11 0 12 -4 20 -9 16 -6 -3 -6 -18 -1 -35 5
-19 5 -28 -1 -25 -5 4 -12 -1 -15 -9 -9 -24 -24 -19 -24 7 0 12 -4 29 -10 37
-6 9 -5 17 3 22 9 6 9 8 -1 8 -9 0 -11 13 -6 50 7 51 1 68 -10 28z"/>
<path d="M1260 921 c0 -4 11 -20 25 -35 26 -28 49 -28 38 0 -5 13 -7 13 -14 2
-7 -10 -10 -8 -15 9 -6 21 -34 41 -34 24z"/>
<path d="M469 882 c-22 -28 -120 -68 -156 -65 -7 0 -13 -3 -13 -8 0 -5 -6 -9
-14 -9 -8 0 -24 -12 -35 -27 -20 -25 -20 -27 -5 -52 35 -56 66 -81 93 -76 22
5 23 4 6 -4 -19 -8 -18 -10 10 -21 17 -6 42 -14 58 -17 26 -5 27 -4 20 28 -3
19 -10 36 -15 37 -4 2 -8 16 -9 30 l0 27 -12 -24 c-9 -19 -8 -26 8 -37 18 -13
18 -14 -5 -14 -33 0 -127 59 -134 84 -3 12 1 27 9 35 12 12 17 12 39 -2 14
-10 27 -17 30 -17 6 0 2 23 -7 38 -9 13 -3 14 50 14 23 0 38 6 48 21 15 21 15
21 29 2 9 -11 13 -28 10 -37 -3 -10 0 -18 6 -18 6 0 9 4 6 8 -3 5 3 22 13 39
15 23 16 30 5 30 -8 0 -14 -10 -14 -21 -1 -20 -1 -20 -12 -2 -8 15 -7 25 7 48
23 40 13 46 -16 10z"/>
<path d="M658 894 c-4 -3 -18 -7 -32 -8 -14 -2 -36 -10 -49 -18 -25 -17 -51
-84 -36 -94 5 -3 9 -10 9 -16 0 -7 -6 -6 -15 2 -12 10 -15 10 -15 -4 0 -9 7
-16 15 -16 17 0 37 -34 27 -46 -4 -5 -1 -4 5 1 10 8 9 19 -2 50 -16 45 -19 68
-7 61 4 -2 9 4 9 15 2 26 21 49 40 49 10 0 11 -4 3 -19 -5 -11 -10 -31 -10
-46 0 -18 -4 -24 -12 -19 -7 4 1 -7 19 -24 30 -30 50 -68 40 -79 -3 -2 -14 8
-23 24 -31 48 -54 55 -33 10 11 -24 66 -55 129 -71 23 -6 23 -6 5 5 -37 22
-75 63 -75 80 0 10 -8 23 -17 28 -16 9 -16 10 -2 11 9 0 19 6 22 14 9 23 -5
27 -26 9 -19 -18 -20 -17 -13 22 9 45 22 65 42 65 8 0 14 5 14 10 0 11 -4 13
-12 4z"/>
<path d="M2556 840 c-9 -22 -27 -38 -62 -54 -78 -37 -107 -75 -111 -143 -3
-48 2 -70 29 -133 42 -95 59 -100 122 -36 79 78 95 183 44 286 -24 47 -24 49
-6 73 12 17 15 28 8 32 -6 4 -16 -8 -24 -25z m-35 -109 c-11 -27 -21 -62 -20
-78 1 -27 1 -27 11 7 22 75 50 104 61 63 8 -29 2 -106 -11 -138 -7 -16 -17
-42 -23 -57 -7 -16 -15 -28 -20 -28 -5 0 -9 -7 -9 -16 0 -10 -6 -14 -15 -10
-10 3 -15 -1 -15 -11 0 -14 -2 -14 -20 2 -11 10 -17 22 -14 26 3 5 7 18 9 29
3 15 -1 20 -13 18 -12 -2 -18 8 -25 42 -8 42 -9 58 -4 103 2 20 63 77 82 77 7
0 18 7 25 15 23 27 23 7 1 -44z"/>
<path d="M1096 836 c5 -14 53 -41 67 -38 9 2 9 3 -4 -57 -8 -40 -16 -52 -39
-63 -16 -7 -26 -16 -23 -21 3 -4 -3 -11 -14 -13 -10 -3 -31 -25 -47 -50 -15
-24 -37 -49 -48 -55 -33 -18 -12 -21 28 -4 21 8 44 13 51 10 8 -2 11 0 8 5 -3
6 -1 10 6 10 7 0 10 2 7 5 -3 3 -17 1 -32 -5 -21 -8 -25 -7 -19 3 4 6 8 18 9
25 2 8 4 15 6 16 2 1 33 21 70 45 37 24 70 52 74 63 7 24 -3 37 -12 14 -12
-31 -22 -16 -13 22 11 49 11 75 0 67 -5 -3 -17 2 -25 11 -9 8 -16 12 -16 8 0
-5 -5 -3 -12 4 -16 16 -29 15 -22 -2z"/>
<path d="M1237 769 c-11 -15 -16 -17 -20 -7 -4 9 -6 9 -6 1 -2 -23 18 -23 35
-1 12 17 15 18 10 5 -3 -10 -9 -37 -12 -60 l-5 -42 16 34 c17 37 20 91 6 91
-6 0 -16 -9 -24 -21z"/>
<path d="M1351 770 c-11 -110 -11 -106 0 -80 5 13 8 42 6 65 -2 23 -5 30 -6
15z"/>
<path d="M1625 784 c-60 -10 -133 -34 -138 -47 -15 -39 88 -158 173 -200 62
-30 148 -30 189 1 17 12 34 22 39 22 5 0 17 9 27 20 13 14 31 20 62 20 64 0
52 -28 -32 -70 -93 -47 -155 -121 -169 -201 -13 -72 -9 -158 8 -184 23 -35 57
-32 126 10 70 42 128 110 146 172 22 73 20 84 -32 172 -15 25 -15 34 -5 60 11
25 26 35 85 57 39 14 77 33 83 42 20 24 7 26 -24 4 -38 -27 -65 -34 -152 -41
l-75 -6 -24 45 c-31 59 -49 78 -95 101 -38 20 -136 31 -192 23z m166 -41 c6
-7 17 -13 23 -13 18 0 76 -56 76 -74 0 -9 -4 -16 -10 -16 -5 0 -10 -4 -10 -10
0 -5 7 -10 15 -10 17 0 18 -2 9 -24 -3 -9 -15 -16 -25 -16 -10 0 -19 -4 -19
-9 0 -14 -89 -44 -108 -35 -25 11 -24 11 -59 19 -18 4 -33 11 -33 16 0 4 -8
10 -17 14 -33 11 -97 76 -98 98 -1 13 -4 28 -8 34 -4 7 -2 15 4 19 6 3 15 0
20 -7 6 -10 9 -11 9 -1 0 6 9 12 19 12 11 0 22 4 25 9 9 15 174 10 187 -6z
m195 -248 c4 -8 11 -15 18 -15 12 -1 46 -62 46 -84 0 -8 -12 -17 -27 -22 -22
-6 -24 -8 -10 -12 15 -3 18 -10 13 -30 -4 -15 -8 -33 -9 -40 -6 -22 -81 -95
-113 -108 -18 -8 -34 -17 -36 -22 -1 -5 -15 -12 -30 -16 -26 -6 -33 0 -29 27
0 4 -4 7 -9 7 -15 0 -12 40 3 41 8 0 8 2 1 5 -23 9 4 174 28 174 4 0 8 6 8 13
0 11 35 45 85 82 26 19 54 19 61 0z"/>
<path d="M1597 726 c-7 -18 1 -26 25 -26 10 0 29 -6 41 -14 31 -20 141 -56
172 -56 14 0 25 5 25 10 0 6 -7 10 -16 10 -8 0 -12 5 -8 11 4 8 0 8 -15 0 -14
-8 -21 -8 -21 -1 0 5 -13 10 -30 10 -16 0 -30 4 -30 9 0 5 -12 8 -26 5 -16 -3
-23 -1 -19 5 3 6 -7 13 -22 17 -15 3 -38 12 -50 20 -18 11 -22 11 -26 0z"/>
<path d="M1919 450 c-1 -8 -1 -18 0 -22 0 -5 -4 -8 -9 -8 -6 0 -10 -6 -9 -12
3 -17 -22 -68 -33 -68 -4 0 -7 -3 -6 -7 1 -8 -16 -54 -29 -77 -4 -7 -3 -8 4
-1 6 6 31 50 57 99 33 62 44 92 36 100 -7 7 -10 6 -11 -4z"/>
<path d="M374 772 c3 -6 3 -12 -1 -15 -5 -2 -3 -3 4 -1 6 1 19 -4 30 -11 10
-8 23 -14 28 -14 6 0 2 4 -8 10 -9 6 -14 16 -11 22 4 7 4 9 -1 5 -4 -4 -17 -3
-28 3 -12 7 -17 7 -13 1z"/>
<path d="M1201 685 c-11 -19 -27 -35 -36 -35 -8 0 -15 -4 -15 -10 0 -5 -17
-18 -37 -29 -43 -23 -41 -26 7 -9 18 6 47 26 63 45 19 21 33 30 37 23 4 -6 7
3 7 20 0 16 -1 30 -3 30 -1 0 -11 -16 -23 -35z"/>
<path d="M460 709 c-2 -36 66 -119 97 -119 4 0 -7 12 -25 26 -18 14 -41 42
-52 62 -10 21 -19 34 -20 31z"/>
<path d="M578 665 c20 -38 71 -85 92 -85 11 0 23 -6 26 -14 3 -8 16 -12 32 -9
26 3 26 3 5 -6 -26 -12 -31 -31 -7 -31 8 0 12 5 9 10 -3 6 -2 10 4 10 10 0 54
-51 48 -56 -5 -5 -89 23 -122 40 -16 9 -40 16 -52 16 -12 0 -29 7 -38 16 -16
17 -51 12 -40 -6 3 -5 -1 -10 -9 -10 -27 0 -18 -17 20 -40 24 -13 40 -18 46
-12 6 6 -1 12 -21 17 -17 3 -33 11 -36 16 -4 5 2 6 11 2 14 -5 16 -3 10 13 -6
15 -5 17 5 7 7 -7 20 -13 30 -13 9 0 33 -12 54 -26 21 -14 44 -23 51 -20 8 3
30 -8 49 -25 19 -17 39 -28 44 -25 5 4 12 2 15 -3 5 -8 46 -8 121 0 11 1 -11
5 -50 9 -85 9 -102 13 -116 27 -8 8 2 8 33 2 58 -11 68 -11 68 1 0 6 -11 10
-25 10 -18 0 -25 5 -25 19 0 11 -4 23 -10 26 -6 4 -7 -1 -3 -12 6 -16 4 -16
-16 2 -26 23 -15 30 34 21 30 -6 58 -33 60 -58 1 -19 27 -29 76 -31 46 -2 62
3 106 31 29 19 58 35 65 36 7 1 22 7 33 14 19 11 19 11 -5 12 -14 0 -36 -7
-50 -15 -57 -32 -87 -41 -130 -39 -43 3 -43 2 -10 -5 19 -5 28 -9 20 -10 -13
-1 -13 -2 0 -11 9 -6 10 -10 3 -10 -6 0 -15 5 -19 11 -3 6 -17 9 -30 6 -13 -2
-21 -1 -18 4 2 4 -1 11 -8 16 -7 4 -19 16 -27 26 -13 17 -11 17 25 11 28 -4
43 -2 52 8 9 12 2 13 -46 8 -38 -5 -65 -2 -82 7 -14 7 -35 13 -46 13 -12 0
-39 8 -60 17 -22 9 -45 18 -53 19 -8 2 -34 22 -59 46 -24 24 -40 34 -34 23z"/>
<path d="M624 651 c11 -11 28 -21 38 -21 10 0 35 -7 56 -16 61 -26 223 -34
249 -12 8 6 16 9 18 6 7 -6 -24 -32 -39 -34 -6 0 -36 -2 -66 -3 -41 -1 -51 -4
-40 -11 9 -6 40 -8 75 -4 59 6 116 22 85 23 -10 1 -4 10 15 26 20 16 25 24 14
25 -9 0 -19 -3 -23 -7 -8 -8 -31 -11 -111 -12 -108 -3 -194 13 -260 46 l-30
16 19 -22z"/>
<path d="M1257 659 c-9 -6 -15 -15 -11 -21 3 -5 -10 -23 -30 -40 -21 -17 -35
-33 -32 -36 11 -10 74 48 84 78 6 16 10 30 9 30 -1 0 -10 -5 -20 -11z"/>
<path d="M1284 621 c-11 -31 -26 -53 -41 -60 -13 -6 -23 -15 -23 -21 0 -6 -5
-8 -12 -4 -6 4 -16 1 -22 -7 -6 -8 -21 -22 -33 -30 -21 -15 -21 -15 23 -28 35
-11 51 -11 71 -2 35 16 24 24 -15 10 -25 -9 -35 -8 -46 4 -13 13 -13 17 4 32
22 20 28 7 8 -14 -11 -10 -9 -12 7 -9 11 2 19 9 18 15 -1 6 8 19 20 29 l22 19
-19 -23 c-19 -22 -19 -22 5 -19 18 3 23 10 21 25 -2 12 3 31 11 44 14 22 31
88 23 88 -2 0 -12 -22 -22 -49z"/>
<path d="M1407 599 c-3 -12 -11 -19 -18 -17 -19 6 -117 -78 -105 -90 3 -3 14
5 24 18 l18 22 37 -37 38 -38 -62 6 c-56 5 -64 3 -84 -19 -12 -13 -27 -24 -34
-24 -6 0 -11 -5 -11 -11 0 -5 5 -7 10 -4 15 9 12 -3 -7 -25 -11 -13 -19 -16
-24 -8 -4 7 -17 8 -35 3 l-29 -8 30 -8 c24 -7 21 -8 -18 -5 -26 2 -50 -1 -54
-7 -4 -6 -1 -7 8 -2 11 6 12 5 2 -6 -10 -10 -16 -10 -25 -1 -7 7 -8 12 -2 12
5 0 2 5 -6 11 -12 9 -12 10 4 5 14 -5 17 -2 12 10 -4 11 -2 15 8 11 20 -8 86
40 86 63 0 26 -16 26 -23 1 -6 -25 -82 -64 -122 -63 -29 0 -29 0 -6 -9 19 -8
21 -12 11 -24 -7 -8 -8 -15 -2 -15 5 0 26 -7 46 -15 20 -8 37 -14 39 -13 2 2
12 -4 22 -12 11 -8 16 -10 12 -3 -5 7 5 15 26 22 43 15 75 48 92 98 7 21 15
38 17 37 1 0 31 -4 66 -8 44 -5 87 -19 143 -48 52 -27 83 -38 90 -31 6 6 2 13
-13 19 -84 37 -139 70 -182 107 -49 43 -55 67 -17 67 9 0 26 8 37 18 10 10 22
19 27 19 4 1 11 3 15 6 4 2 1 2 -5 1 -7 -2 -13 1 -13 6 0 19 -18 10 -23 -11z"/>
<path d="M430 578 c0 -12 11 -19 35 -24 20 -3 39 -3 43 0 11 11 -21 26 -42 20
-10 -4 -22 0 -27 7 -7 11 -9 10 -9 -3z"/>
<path d="M445 539 c36 -22 74 -57 68 -63 -4 -3 -2 -6 4 -6 6 0 -4 -15 -22 -34
-69 -73 -46 -128 57 -141 92 -11 157 -6 210 17 50 21 71 48 38 48 -11 0 -20
-4 -20 -10 0 -5 -19 -10 -42 -11 -24 0 -37 -3 -30 -6 6 -2 12 -8 12 -12 0 -10
-182 -3 -217 9 -5 1 -11 2 -15 1 -5 0 -8 15 -8 34 0 19 5 35 10 35 6 0 21 11
34 25 13 14 28 25 34 25 22 0 -76 87 -104 94 -26 6 -27 5 -9 -5z"/>
<path d="M405 502 c11 -11 38 -22 60 -25 34 -5 36 -4 15 5 -14 6 -36 15 -50
21 -44 20 -45 20 -25 -1z"/>
<path d="M658 458 c11 -14 10 -17 -5 -20 -14 -3 -12 -7 12 -20 17 -8 47 -18
69 -22 43 -8 42 -15 -6 -25 -20 -5 3 -7 57 -5 50 1 102 3 118 3 15 1 27 6 27
12 0 7 -14 9 -38 5 -24 -3 -49 1 -67 10 -16 8 -35 12 -42 10 -7 -3 -13 -1 -13
3 0 5 -13 7 -29 5 -22 -4 -33 1 -47 19 -11 12 -26 27 -34 32 -13 7 -13 6 -2
-7z"/>
<path d="M1040 434 c-41 -8 -97 -17 -125 -20 -71 -9 -71 -17 0 -11 101 9 187
25 198 36 6 6 9 11 7 10 -3 0 -39 -7 -80 -15z"/>
<path d="M585 414 l-30 -15 29 4 c15 3 40 -2 55 -9 14 -8 33 -14 41 -13 8 0 4
5 -10 10 -14 6 -28 17 -33 25 -10 17 -13 17 -52 -2z"/>
<path d="M944 375 c-4 -8 -12 -15 -19 -15 -23 0 -98 -47 -83 -53 7 -2 -13 -12
-44 -21 -32 -10 -61 -22 -64 -28 -4 -6 2 -5 15 2 12 6 30 9 39 6 11 -4 35 8
64 33 26 21 59 42 73 45 14 4 25 11 25 16 0 6 9 10 21 10 11 0 17 5 14 10 -9
15 -35 12 -41 -5z"/>
<path d="M985 357 c-10 -7 -28 -22 -38 -34 -10 -13 -27 -23 -38 -23 -10 0 -19
-5 -19 -11 0 -5 3 -8 8 -5 4 2 18 -2 31 -9 l24 -12 -27 -18 c-35 -23 -26 -32
11 -10 24 14 28 22 25 49 -3 27 2 38 28 59 32 28 30 35 -5 14z"/>
<path d="M1265 311 c-84 -24 -136 -62 -168 -127 -13 -25 -14 -35 -4 -47 15
-20 112 -54 175 -62 88 -11 174 56 189 148 5 31 12 42 39 55 19 8 34 19 34 24
0 13 -13 9 -39 -11 -23 -17 -25 -17 -61 0 -44 22 -124 31 -165 20z m132 -38
c7 -17 -24 -42 -52 -43 -11 0 -29 -7 -39 -15 -20 -15 -20 -15 0 -15 10 0 39 9
63 20 23 11 47 17 52 14 5 -3 6 2 3 10 -4 10 -1 16 9 16 14 0 14 -5 5 -32 -6
-18 -19 -44 -29 -57 -11 -13 -17 -27 -14 -31 6 -10 -25 -24 -47 -21 -9 1 -19
-2 -22 -8 -6 -9 -111 -6 -127 5 -4 2 -6 11 -3 18 4 10 -2 12 -20 9 -14 -3 -26
-10 -26 -17 0 -6 -7 -3 -14 6 -7 10 -16 15 -19 11 -4 -3 -7 1 -7 10 0 18 63
88 83 91 11 2 72 27 106 44 22 12 92 1 98 -15z"/>
</g>
</svg>
